<?xml version="1.0" encoding="UTF-8"?>
<svg width="221px" height="200px" viewBox="0 0 221 200" version="1.1" xmlns="http://www.w3.org/2000/svg" xmlns:xlink="http://www.w3.org/1999/xlink">
    <!-- Generator: Sketch 55.2 (78181) - https://sketchapp.com -->
    <title>pic_haluoyewu_haluozhuliche_chanpinjieshao_zhinengdianchi</title>
    <desc>Created with Sketch.</desc>
    <defs>
        <linearGradient x1="0.0093453031%" y1="49.9980858%" x2="99.9947432%" y2="49.9980858%" id="linearGradient-1">
            <stop stop-color="#E6EDF5" offset="0%"></stop>
            <stop stop-color="#DADEF0" offset="99%"></stop>
        </linearGradient>
        <linearGradient x1="-0.0152907638%" y1="49.9921445%" x2="99.8752538%" y2="49.9921445%" id="linearGradient-2">
            <stop stop-color="#F67265" offset="2%"></stop>
            <stop stop-color="#FFE375" offset="100%"></stop>
        </linearGradient>
        <linearGradient x1="0%" y1="49.9391685%" x2="100%" y2="49.9391685%" id="linearGradient-3">
            <stop stop-color="#00C1F8" offset="0%"></stop>
            <stop stop-color="#0274EE" offset="100%"></stop>
        </linearGradient>
        <linearGradient x1="-0.00572857806%" y1="49.9892681%" x2="100%" y2="49.9892681%" id="linearGradient-4">
            <stop stop-color="#F7D4A7" offset="2%"></stop>
            <stop stop-color="#FFE375" offset="100%"></stop>
        </linearGradient>
    </defs>
    <g id="ui升级" stroke="none" stroke-width="1" fill="none" fill-rule="evenodd">
        <g id="哈啰助力车" transform="translate(-1308.000000, -3162.000000)" fill-rule="nonzero">
            <g id="资源-45" transform="translate(1308.000000, 3162.000000)">
                <path d="M217,113.11 C217.015,112.833537 217.015,112.556463 217,112.28 L217,89.51 L3,89.51 L3,113.27 C3,115.76 4.5,118.13 7.58,119.91 L98,172.12 C104.82,176.05 116.73,175.56 124.6,171.01 L210.49,121.43 C214.49,119.13 216.65,116.24 216.95,113.43 L216.95,113.43 L217,113.11 Z" id="路径" fill="url(#linearGradient-1)"></path>
                <path d="M98,149 L7.6,96.75 C0.79,92.81 1.6,85.94 9.51,81.39 L95.4,31.81 C103.27,27.26 115.18,26.81 121.99,30.7 L212.42,82.91 C219.23,86.84 218.42,93.72 210.51,98.26 L124.62,147.85 C116.75,152.39 104.84,152.89 98,149 Z" id="路径" fill="#FFFFFF"></path>
                <path d="M65.69,102.37 L66.69,102.82 C68.8,103.74 67.34,103.11 65.69,102.37 Z" id="路径" fill="#09A9E3"></path>
                <path d="M89.15,29.25 C57.27,34.64 35.35,52.19 37.7,72 C35.37,52.32 57.07,34.68 89.15,29.25 Z" id="路径" fill="#09A9E3" opacity="0.7"></path>
                <path d="M69.93,104.14 L68.93,103.77 L69.93,104.14 Z" id="路径" fill="#09A9E3" opacity="0.7"></path>
                <path d="M75.15,106 L75.15,106 C72.52,105.16 67.15,103.18 71.61,104.78 C72.73,105.19 74.13,105.66 75.15,106 Z" id="路径" fill="#09A9E3" opacity="0.7"></path>
                <path d="M79.45,107.26 L77.89,106.82 L79.45,107.26 Z" id="路径" fill="#09A9E3" opacity="0.7"></path>
                <path d="M81,107.68 L80.29,107.49 L81,107.68 Z" id="路径" fill="#09A9E3" opacity="0.7"></path>
                <polygon id="路径" fill="#09A9E3" opacity="0.7" points="151.45 103.9 151.56 103.9 151.4 103.96"></polygon>
                <path d="M75.15,106 L75.15,106 C76.71,106.5 78.76,107.09 79.97,107.41 C83.28,108.3 77.9,106.88 75.15,106 Z" id="路径" fill="#09A9E3" opacity="0.7"></path>
                <path d="M142.66,106.9 C143.12,106.77 143.35,106.7 142.9,106.84 L142.66,106.9 Z" id="路径" fill="#09A9E3" opacity="0.7"></path>
                <path d="M151.57,103.86 L151.57,103.86 C151.44,103.91 151.41,103.92 151.57,103.86 Z" id="路径" fill="#09A9E3" opacity="0.7"></path>
                <path d="M151.57,103.86 L151.85,103.74 L151.57,103.86 Z" id="路径" fill="#09A9E3" opacity="0.7"></path>
                <path d="M104.51,39.52 L104.46,39.52 C103.78,39.55 104,39.53 104.51,39.52 Z" id="路径" fill="#09A9E3" opacity="0.7"></path>
                <path d="M105,39.5 L105.69,39.5 L105,39.5 Z" id="路径" fill="#09A9E3" opacity="0.7"></path>
                <path d="M96.36,40.11 C93.94,40.37 91.53,40.7 89.15,41.11 C91.53,40.71 93.94,40.38 96.36,40.11 Z" id="路径" fill="#09A9E3" opacity="0.7"></path>
                <path d="M89.15,41.1 C57.27,46.49 35.35,64 37.7,83.87 C35.37,64.17 57.07,46.53 89.15,41.1 Z" id="路径" fill="#09A9E3" opacity="0.7"></path>
                <path d="M149.32,22.82 L149.32,22.82 L146.42,21.82 L146.42,21.82 C141.754017,20.2462113 136.981968,19.0064142 132.14,18.11 L132.14,18.11 C132.14,18.11 130.03,17.73 129.98,17.72 L129.98,17.72 C128.31,17.43 126.14,17.14 124.47,16.93 L124.47,16.93 C121.33,16.53 117.62,16.28 114.39,16.14 L114.39,16.14 C109.05,15.94 105,16.14 105,16.14 C105,16.14 101.46,16.24 96.41,16.76 L96.41,40.11 L101.63,55.85 C115.63,54.36 130.72,56.75 141.63,63.05 L161.1,51.76 L161.1,28.35 C157.330434,26.1890351 153.39067,24.3395537 149.32,22.82 Z M146.39,21.77 L141.91,20.61 L146.39,21.77 Z" id="形状" fill="#F7416C"></path>
                <path d="M149.32,22.82 L149.32,22.82 L146.42,21.82 L146.42,21.82 C141.754017,20.2462113 136.981968,19.0064142 132.14,18.11 L132.14,18.11 C132.14,18.11 130.03,17.73 129.98,17.72 L129.98,17.72 C128.31,17.43 126.14,17.14 124.47,16.93 L124.47,16.93 C121.33,16.53 117.62,16.28 114.39,16.14 L114.39,16.14 C109.05,15.94 105,16.14 105,16.14 C105,16.14 101.46,16.24 96.41,16.76 L101.63,32.49 C115.63,31 130.72,33.4 141.63,39.69 L161.1,28.35 C157.330434,26.1890351 153.39067,24.3395537 149.32,22.82 Z M141.85,20.59 L146.39,21.77 L141.85,20.59 Z" id="形状" fill="#FF81A2"></path>
                <path d="M177.77,96.39 L177.41,96.93 L177.77,96.39 Z" id="路径" fill="#A200FA"></path>
                <path d="M182.39,83.73 C182.39,83.48 182.39,83.62 182.39,83.86 C182.38,83.82 182.39,83.77 182.39,83.73 Z" id="路径" fill="#A200FA"></path>
                <path d="M179.93,92.57 C179.84,92.77 179.74,92.97 179.64,93.17 C179.36,93.72 179.56,93.38 179.93,92.57 Z" id="路径" fill="#A200FA"></path>
                <path d="M182.49,81.6 L182.49,81.37 C182.49,81.58 182.5,81.75 182.49,81.6 Z" id="路径" fill="#A200FA"></path>
                <polygon id="路径" fill="#A200FA" points="177.09 97.39 177.18 97.26 177.18 97.26"></polygon>
                <polygon id="路径" fill="#A200FA" points="182.49 69.52 182.49 69.8 182.49 69.8 182.49 69.53"></polygon>
                <path d="M182.49,69.52 L182.49,69.52 L182.49,66 C182.49,55.22 175.37,44.42 161.1,36.18 L141.56,47.44 L141.56,63.05 C146.89,66.47 149.23,68.55 151.44,71.61 C151.891921,72.2539739 152.30918,72.9215884 152.69,73.61 C152.57,73.83 152.44,74.04 152.31,74.26 L152.31,74.26 L151.94,74.85 L151.94,74.85 C149.313524,78.6581905 145.825738,81.7930871 141.76,84 L141.76,99.59 L161.43,111 L161.43,111 C163.27,109.93 164.99,108.83 166.59,107.68 L166.66,107.68 L166.94,107.48 L168.12,106.6 L168.12,106.6 C169.12,105.8 170.12,104.98 171.07,104.15 L171.45,103.8 L171.9,103.38 L172.29,103.01 L172.75,102.57 L173.02,102.29 C174.530318,100.777744 175.91178,99.1420659 177.15,97.4 L177.36,97.09 L177.18,97.36 L177.39,97.06 L177.39,97.06 L177.39,97.06 L177.84,96.38 C177.814949,96.4296689 177.784786,96.4765894 177.75,96.52 C177.790154,96.4656677 177.826892,96.4088915 177.86,96.35 C178.01,96.13 178,96.14 177.91,96.28 C178.70193,95.0298706 179.400495,93.7229861 180,92.37 L179.91,92.57 C180.38131,91.5962489 180.792091,90.5943455 181.14,89.57 C181.171188,89.4881818 181.197895,89.4047248 181.22,89.32 C181.247818,89.2515756 181.2712,89.1814304 181.29,89.11 C181.29,89.11 181.29,89.19 181.29,89.23 C182.029181,86.9501486 182.436685,84.575851 182.5,82.18 L182.5,82.18 L182.5,69.52 L182.49,69.52 Z" id="路径" fill="#38CCD1"></path>
                <path d="M182.49,66 L182.49,65.77 C182.49,66 182.5,66.14 182.49,66 Z" id="路径" fill="#A200FA"></path>
                <path d="M182.48,65.41 C182.48,65.53 182.48,65.65 182.48,65.76 C182.49,65.64 182.49,65.5 182.48,65.41 Z" id="路径" fill="#A200FA"></path>
                <path d="M182.49,77.84 L182.49,77.61 C182.49,77.82 182.5,78 182.49,77.84 Z" id="路径" fill="#A200FA"></path>
                <path d="M161.1,36.15 L141.56,47.44 C146.89,50.86 149.23,52.94 151.44,56 C153.268808,58.4870976 154.397945,61.4187115 154.71,64.49 L154.71,64.49 C154.966351,67.92643 154.122276,71.3552649 152.3,74.28 L152.3,74.28 L151.93,74.87 L151.93,74.87 C149.303969,78.6697125 145.819903,81.7974923 141.76,84 L161.43,95.36 L161.43,95.36 C189.66,79 189.46,52.53 161.1,36.15 Z M163.9,93.83 L164.27,93.6 L163.9,93.83 Z M174.39,85.13 L175.18,84.23 L174.39,85.13 Z M175.46,83.89 L175.9,83.35 L175.46,83.89 Z M176.26,82.89 C176.47,82.62 176.67,82.35 176.87,82.07 C176.67,82.35 176.47,82.62 176.26,82.89 L176.26,82.89 Z M178.42,79.76 L178.66,79.35 L178.42,79.76 Z M178.96,78.83 L179.18,78.44 L178.96,78.83 Z M181.88,71.34 C181.904758,71.2511237 181.924786,71.1609972 181.94,71.07 C181.924786,71.1609972 181.904758,71.2511237 181.88,71.34 L181.88,71.34 Z M182.09,70.34 L182.15,69.94 L182.09,70.34 Z M182.25,69.34 C182.25,69.2 182.25,69.06 182.3,68.92 C182.28,69.08 182.27,69.22 182.25,69.36 L182.25,69.34 Z M182.45,67.34 L182.45,66.81 L182.45,67.34 Z M182.45,65.44 C182.45,65.68 182.45,66.26 182.45,66.02 C182.471069,65.8173622 182.481084,65.6137272 182.48,65.41 L182.45,65.44 Z M182.35,68.28 C182.35,68.28 182.35,68.19 182.35,68.15 C182.42,67.87 182.4,68 182.38,68.25 L182.35,68.28 Z M181.4,73.09 C180.929845,74.6372845 180.331091,76.1425319 179.61,77.59 C180.349667,76.136898 180.95873,74.6209347 181.43,73.06 L181.4,73.09 Z M177.06,81.81 C177.33,81.42 177.6,81.04 177.85,80.64 C177.616243,81.0326925 177.362579,81.4131883 177.09,81.78 L177.06,81.81 Z M174.15,85.4 C172.286593,87.4152129 170.252343,89.2654441 168.07,90.93 C170.264207,89.2575481 172.308596,87.3971868 174.18,85.37 L174.15,85.4 Z M167,91.7 L166.64,91.97 L167,91.7 Z M163,94.37 L162.62,94.6 L163,94.37 Z" id="形状" fill="#5CF0D0"></path>
                <path d="M96.36,23.06 C62.12,26.71 37.45,44 37.529806,64 L37.529806,64 L37.529806,81.11 L37.529806,81.11 C37.5435893,82.9958247 37.7683231,84.8741965 38.2,86.71 L65.66,84.62 L65.66,77.55 C66.97,72.11 71.25,67.15 77.66,63.32 C86.41,58.59 92.66,56.76 101.66,55.85 L101.66,38.79 L96.36,23.06 Z" id="路径" fill="url(#linearGradient-2)"></path>
                <path d="M65.23,75.37 L37.77,74.9 L37.77,86.71 C40.16,96.81 48.77,105.84 60.95,112.12 L60.95,112.12 C65.363797,114.415773 69.9675572,116.3262 74.71,117.83 L88.04,103.83 L88.04,94.6 C76,90.72 67.2,83.69 65.23,75.37 Z" id="路径" fill="#00BFF8"></path>
                <path d="M75.15,106 C70.4059684,104.500553 65.8018369,102.589972 61.39,100.29 C49.26,94 40.59,85 38.2,74.87 L65.67,72.79 C67.67,81.11 76.38,88.13 88.48,92.01 L75.15,106 Z" id="路径" fill="#3ECEFF"></path>
                <path d="M141.76,87.74 C127.37,96.05 105.53,97.46 88.48,92 L75.15,106 L75.15,117.85 L75.83,118.06 L75.83,118.06 L77.2,118.48 L77.2,118.48 C78.82,118.98 81.26,119.64 84.92,120.48 L84.92,120.48 L86.35,120.79 L86.35,120.79 C94.0440593,122.317875 101.865856,123.111439 109.71,123.16 L109.71,123.16 C116.802279,123.210425 123.885544,122.644968 130.88,121.47 C130.88,121.47 132.49,121.19 132.69,121.14 L132.69,121.14 C142.771898,119.399632 152.488128,115.971568 161.43,111 L161.43,99.09 L141.76,87.74 Z" id="路径" fill="url(#linearGradient-3)"></path>
                <path d="M161.43,99.09 C152.500323,104.066964 142.793578,107.498641 132.72,109.24 L132.72,109.24 C132.52,109.29 130.92,109.56 130.91,109.56 C123.915203,110.733209 116.832379,111.301976 109.74,111.26 L109.74,111.26 C101.895856,111.211439 94.0740593,110.417875 86.38,108.89 L86.38,108.89 C86.01,108.82 85.38,108.68 84.95,108.59 L84.95,108.59 C81.29,107.78 78.85,107.12 77.23,106.59 L77.23,106.59 L75.86,106.17 L75.86,106.17 L75.15,106 L88.48,92 C105.48,97.46 127.37,96 141.76,87.74 L161.43,99.09 Z" id="路径" fill="#3ECEFF"></path>
                <path d="M65.67,67.57 L38.2,69.65 C32.94,47.29 58.93,27.05 96.36,23.06 L101.58,38.79 C78.5,41.25 62.4,53.77 65.67,67.57 Z" id="路径" fill="url(#linearGradient-4)"></path>
            </g>
        </g>
    </g>
</svg>