<?xml version="1.0" encoding="UTF-8"?>
<svg width="221px" height="200px" viewBox="0 0 221 200" version="1.1" xmlns="http://www.w3.org/2000/svg" xmlns:xlink="http://www.w3.org/1999/xlink">
    <!-- Generator: Sketch 55.2 (78181) - https://sketchapp.com -->
    <title>pic_haluoyewu_haluozhuliche_chanpinjieshao_zhinengdianchi</title>
    <desc>Created with Sketch.</desc>
    <defs>
        <linearGradient x1="66.3577397%" y1="123.476148%" x2="38.4941705%" y2="1.20362191%" id="linearGradient-1">
            <stop stop-color="#00C1F8" offset="0%"></stop>
            <stop stop-color="#0274EE" offset="100%"></stop>
        </linearGradient>
        <linearGradient x1="-5.64049972%" y1="44.6162908%" x2="159.071415%" y2="60.5410762%" id="linearGradient-2">
            <stop stop-color="#00C1F8" offset="0%"></stop>
            <stop stop-color="#0274EE" offset="100%"></stop>
        </linearGradient>
    </defs>
    <g id="ui升级" stroke="none" stroke-width="1" fill="none" fill-rule="evenodd">
        <g id="哈啰助力车" transform="translate(-393.000000, -3162.000000)" fill-rule="nonzero">
            <g id="资源-44" transform="translate(393.000000, 3162.000000)">
                <path d="M115.56,29.85 C116.927042,29.4968847 135.863475,32.9695711 162.67,23.67 C163.54,27.67 180.13,104.48 115.94,163.39 C51.63,178.67 67.73,83 68.58,78 C95.25,57.75 114.55,31.25 115.56,29.85 Z" id="路径" fill="#3ECEFF"></path>
                <path d="M70.78,151.71 L71.12,151.94 C71.76,152.39 72.43,152.83 73.12,153.23 L86.3,160.89 C85.61,160.49 84.95,160.06 84.3,159.6 L83.97,159.37 C83.36,158.93 82.76,158.47 82.19,157.98 L81.86,157.69 C81.28,157.19 80.72,156.67 80.18,156.13 L80.06,156 C79.54,155.46 79.06,154.91 78.56,154.34 L78.33,154.07 C77.84,153.49 77.38,152.89 76.93,152.27 L76.67,151.9 C76.22,151.27 75.79,150.63 75.38,149.97 L75.23,149.71 C74.84,149.07 74.46,148.41 74.1,147.71 C74.1,147.62 74.01,147.54 73.96,147.45 C73.59,146.75 73.24,146.04 72.91,145.31 C72.84,145.17 72.77,145.03 72.71,144.88 C72.38,144.16 72.06,143.43 71.76,142.68 C71.76,142.56 71.67,142.44 71.62,142.32 C71.33,141.58 71.05,140.82 70.79,140.06 L70.73,139.9 C70.46,139.11 70.21,138.31 69.97,137.5 C69.97,137.35 69.88,137.2 69.83,137.04 C69.6,136.26 69.39,135.46 69.18,134.66 C69.18,134.51 69.11,134.36 69.07,134.21 C68.86,133.37 68.66,132.53 68.48,131.68 C68.3,130.83 68.13,129.98 67.98,129.12 L67.89,128.68 C67.75,127.85 67.61,127.01 67.49,126.18 C67.49,126.01 67.44,125.85 67.41,125.68 C67.29,124.83 67.18,123.98 67.07,123.12 C67.07,123.05 67.07,122.98 67.07,122.91 C66.97,122.08 66.88,121.24 66.8,120.41 L66.8,120.03 C66.72,119.18 66.65,118.34 66.59,117.49 C66.59,117.33 66.59,117.16 66.59,116.99 C66.54,116.15 66.49,115.31 66.45,114.47 C66.45,114.36 66.45,114.25 66.45,114.13 C66.45,113.32 66.38,112.52 66.36,111.71 C66.36,111.62 66.36,111.52 66.36,111.43 C66.36,110.59 66.36,109.76 66.31,108.94 L66.31,108.47 C66.31,107.66 66.31,106.85 66.31,106.06 L66.31,105.67 C66.31,104.88 66.31,104.09 66.31,103.32 L66.31,103.2 C66.31,102.4 66.31,101.62 66.39,100.84 C66.39,100.7 66.39,100.55 66.39,100.41 C66.39,99.66 66.46,98.93 66.49,98.2 L66.49,97.81 C66.49,97.06 66.57,96.33 66.62,95.61 C66.67,94.89 66.72,94.19 66.77,93.5 L66.77,93.16 C66.82,92.5 66.88,91.85 66.93,91.22 C68.03,82.4533333 68.58,78.0466667 68.58,78 L55.39,70.33 L55.39,70.58 L55.39,70.71 C55.39,70.78 55.39,70.86 55.39,70.95 L55.39,71.13 C55.39,71.23 55.39,71.34 55.39,71.46 L55.39,71.64 C55.39,71.8 55.34,71.98 55.31,72.17 L55.31,72.25 C55.31,72.47 55.24,72.71 55.2,72.96 L55.2,73.14 C55.2,73.34 55.14,73.54 55.11,73.76 C55.08,73.98 55.11,73.95 55.11,74.05 C55.11,74.15 55.06,74.45 55.03,74.66 C55,74.87 55.03,74.87 54.98,74.98 L54.89,75.67 L54.89,75.92 L54.89,76 C54.83,76.44 54.77,76.91 54.71,77.4 L54.71,77.71 C54.65,78.21 54.59,78.73 54.53,79.27 L54.53,79.53 C54.53,79.53 53.3,89.485664 53.3,95.1904122 L53.21,95.73 C53.21,96.5 53.21,97.27 53.21,98.06 C53.21,98.19 53.21,98.33 53.21,98.46 C53.21,99.25 53.21,100.05 53.21,100.86 L53.21,101.34 C53.21,102.17 53.21,102.99 53.21,103.83 C53.2050092,103.923267 53.2050092,104.016733 53.21,104.11 C53.21,104.91 53.21,105.72 53.3,106.53 C53.3,106.64 53.3,106.76 53.3,106.87 C53.3,107.7 53.39,108.55 53.45,109.39 C53.45,109.56 53.45,109.73 53.45,109.9 C53.51,110.74 53.57,111.58 53.65,112.43 C53.65,112.55 53.65,112.68 53.65,112.81 C53.73,113.64 53.82,114.47 53.91,115.3 L53.91,115.52 C54.01,116.38 54.13,117.23 54.25,118.09 C54.25,118.25 54.3,118.41 54.32,118.57 C54.45,119.41 54.58,120.25 54.73,121.08 C54.73,121.22 54.78,121.37 54.81,121.52 C54.97,122.38 55.13,123.23 55.31,124.08 C55.49,124.93 55.69,125.77 55.9,126.61 C55.9,126.76 55.97,126.9 56.01,127.05 C56.21,127.86 56.43,128.65 56.66,129.45 C56.66,129.6 56.75,129.75 56.79,129.9 C57.03,130.71 57.29,131.51 57.56,132.3 C57.5657052,132.353181 57.5657052,132.406819 57.56,132.46 C57.83,133.22 58.11,133.97 58.4,134.72 L58.54,135.08 C58.84,135.83 59.15,136.56 59.48,137.28 C59.55,137.43 59.61,137.57 59.68,137.71 C60.02,138.44 60.37,139.15 60.74,139.85 L60.88,140.1 C61.24,140.77 61.62,141.43 62.01,142.1 L62.16,142.35 C62.57,143.02 63,143.66 63.44,144.29 L63.71,144.66 C64.16,145.27 64.62,145.88 65.1,146.46 L65.33,146.73 C65.82,147.3 66.33,147.85 66.84,148.39 L66.96,148.51 C67.49,149.06 68.06,149.58 68.64,150.08 L68.97,150.37 C69.58,150.8 70.17,151.27 70.78,151.71 Z" id="路径" fill="url(#linearGradient-1)"></path>
                <path d="M143.3,29.28 L145,29 L145.82,28.83 L147.82,28.38 L148.34,28.26 L151,27.55 L151.17,27.5 L151.76,27.34 L153.57,26.82 L154.57,26.53 L156.29,25.99 L157.29,25.67 L159,25 L159.88,24.69 C160.8,24.36 161.72,24.01 162.65,23.64 L149.48,16 C148.546667,16.3666667 147.626667,16.7166667 146.72,17.05 L145.84,17.36 C145.22,17.58 144.6,17.8 143.99,18 L142.99,18.33 L141.26,18.87 L140.32,19.16 L138.51,19.67 L137.75,19.88 C136.87,20.12 136.01,20.34 135.16,20.54 L134.63,20.67 L132.63,21.12 L131.81,21.29 L130.1,21.62 L129.33,21.76 L127.33,22.1 L127,22.15 C126.21,22.27 125.43,22.38 124.67,22.47 L124,22.55 L122.34,22.73 L121.68,22.8 L119.77,23 L119.61,23 L117.61,23.12 L117.1,23.12 L115.35,23.12 L112.65,23.12 L111.17,23.12 L110.85,23.12 L109.28,23 L108.67,23 L108.29,23 L107.57,22.94 L107.32,22.94 L106.43,22.85 L106.28,22.85 L105.62,22.78 L105.35,22.78 L104.9,22.72 L104.63,22.72 L104.27,22.67 L104.02,22.67 L103.71,22.62 L103.5,22.62 L103.25,22.57 L103.08,22.57 L102.87,22.57 L102.75,22.57 L102.58,22.57 L102.52,22.57 L102.38,22.57 L102.26,22.74 L102.19,22.84 L102.03,23.04 L101.93,23.19 L101.72,23.47 L101.58,23.65 L101.19,24.18 L101.11,24.28 L100.67,24.87 L100.47,25.12 L100.08,25.63 L99.84,25.95 C99.72,26.1 99.6,26.26 99.47,26.41 C99.34,26.56 99.18,26.8 99.02,27 L98.65,27.47 L98.14,28.12 L97.72,28.64 L97.17,29.33 L96.69,29.92 L96.11,30.64 L95.58,31.29 L94.95,32.05 C94.77,32.28 94.58,32.5 94.38,32.74 L93.7,33.55 C93.5,33.79 93.31,34.03 93.1,34.27 L92.38,35.12 L91.73,35.88 L90.97,36.77 L90.27,37.57 L89.52,38.43 L88.76,39.29 C88.5,39.58 88.24,39.88 87.97,40.17 C87.7,40.46 87.44,40.76 87.17,41.06 C86.9,41.36 86.63,41.67 86.35,41.97 L85.52,42.88 L84.65,43.88 L83.79,44.8 L82.88,45.8 L81.99,46.74 L81.05,47.74 L80.12,48.74 L79.12,49.74 L78.17,50.74 C77.84,51.08 77.5,51.41 77.17,51.74 L76.17,52.74 L74.59,54.28 C74.37,54.49 74.16,54.71 73.93,54.92 C73.18,55.65 72.41,56.38 71.63,57.11 L71.22,57.49 L69.22,59.29 C68.95,59.55 68.66,59.8 68.38,60.05 L66.78,61.48 L65.78,62.33 L64.22,63.68 L60.930513,66.1718733 C57.8435043,68.4839578 55.9966667,69.8666667 55.39,70.32 L68.58,78 L71.27,75.91 L72.14,75.22 L73.92,73.78 L74.92,72.96 L76.53,71.62 L77.53,70.76 L79.08,69.41 L80.08,68.56 C80.62,68.09 81.14,67.61 81.67,67.14 L82.52,66.37 L84.45,64.59 L84.89,64.19 C85.67,63.46 86.43,62.73 87.19,62 L87.85,61.36 C88.38,60.85 88.91,60.36 89.42,59.82 L89.67,59.58 L90.4,58.86 L91.4,57.86 L92.4,56.86 L93.4,55.86 L94.32,54.91 L95.26,53.91 C95.56,53.6 95.86,53.29 96.15,52.97 L97,52 L97.85,51.08 L98.72,50.14 L99.55,49.23 L100.38,48.32 L101.18,47.42 L101.96,46.54 L102.72,45.68 L103.47,44.82 L103.71,44.55 L104.17,44.02 L104.93,43.14 C105.15,42.88 105.37,42.63 105.58,42.37 C105.79,42.11 106.07,41.8 106.31,41.52 L106.91,40.8 L107.59,39.99 L108.16,39.3 L108.78,38.54 C108.96,38.32 109.14,38.11 109.31,37.89 L109.9,37.17 L110.38,36.58 L110.92,35.9 L111.35,35.36 L111.85,34.73 L112.23,34.24 L112.67,33.68 L112.88,33.41 L113.05,33.19 C113.13,33.09 113.2,32.99 113.28,32.9 L113.69,32.35 L113.86,32.13 L114.36,31.48 L114.78,30.92 L114.89,30.77 L115.13,30.45 L115.23,30.32 L115.39,30.09 L115.39,30.03 C115.437079,29.9727959 115.480498,29.9126763 115.52,29.85 L115.66,29.85 L115.73,29.85 L115.89,29.85 L116.02,29.85 L116.22,29.85 L116.39,29.85 L116.54,29.85 L116.65,29.85 L116.85,29.85 L117.16,29.9 L117.41,29.9 L117.77,29.95 L118.05,29.95 L118.5,30.01 L118.77,30.01 L119.43,30.08 L119.57,30.08 L120.46,30.17 L120.72,30.17 L121.43,30.23 L121.81,30.23 L122.3,30.23 L122.42,30.23 L123.99,30.31 L124.31,30.31 C132.900061,30.4033333 139.230061,30.06 143.3,29.28 Z" id="路径" fill="url(#linearGradient-2)"></path>
                <path d="M139.75,53.81 L142.75,52.06 L142,61.91 L137.5,115.33 L134.5,117.08 L137.77,78.29 C136.740297,80.7330252 135.575154,83.116726 134.28,85.43 L131.47,118.83 L128.47,120.58 L130.97,90.83 C129.97,92.31 128.82,93.83 127.64,95.33 L125.43,122.33 L122.43,124.08 L124.55,98.94 C121.443357,102.341143 117.85527,105.268888 113.9,107.63 C108,111 102.87,119.29 102.29,126.25 L101.46,136.11 L98.46,137.86 L99.29,128 C100.05,119 106.68,108.25 114.11,104 C126.56,96.81 137.69,78.77 138.95,63.7 L139.28,59.81 L139.48,57 L139.75,53.81 Z" id="路径" fill="#5FF7D6"></path>
                <path d="M136.72,55.56 C136.56,57.56 136.43,59.03 136.35,60.02 C136.25,61.22 136.1,63.02 135.89,65.41 C134.79,78.46 125.17,94.07 114.39,100.3 C105.28,105.55 97.15,118.74 96.22,129.75 L95.4,139.61 L92.4,141.36 L93.22,131.5 C94.32,118.5 103.95,102.85 114.73,96.63 C123.83,91.37 131.96,78.18 132.89,67.16 L133.72,57.31 L136.72,55.56 Z" id="路径" fill="#5FF7D6"></path>
                <path d="M127.63,60.81 L130.63,59.06 L130.36,62.27 L130.16,65 L129.83,68.89 C129.07,77.89 122.44,88.65 115,92.89 C102.55,100.08 91.43,118.12 90.16,133.18 L89.93,136 L89.6,139.89 L89.33,143.1 L86.33,144.85 L87.16,134.99 L91.66,81.59 L94.66,79.84 L91.39,118.62 L91.31,118.84 C92.3538888,116.321686 93.5459748,113.867391 94.88,111.49 L97.69,78.08 L100.69,76.33 L98.19,106.08 C99.19,104.56 100.31,103.08 101.45,101.66 L103.73,74.58 L106.73,72.84 L104.67,98 C107.77369,94.5997276 111.358348,91.6720323 115.31,89.31 C121.07,86 126.21,77.63 126.8,70.67 L127.63,60.81 Z" id="路径" fill="#5FF7D6"></path>
            </g>
        </g>
    </g>
</svg>