<?xml version="1.0" encoding="UTF-8"?>
<svg width="221px" height="200px" viewBox="0 0 221 200" version="1.1" xmlns="http://www.w3.org/2000/svg" xmlns:xlink="http://www.w3.org/1999/xlink">
    <!-- Generator: Sketch 55.2 (78181) - https://sketchapp.com -->
    <title>pic_haluoyewu_haluozhuliche_chanpinjieshao_zhinengdianchi</title>
    <desc>Created with Sketch.</desc>
    <defs>
        <linearGradient x1="76.739373%" y1="-17.1824368%" x2="15.8019707%" y2="102.79488%" id="linearGradient-1">
            <stop stop-color="#00C1F8" offset="0%"></stop>
            <stop stop-color="#0274EE" offset="100%"></stop>
        </linearGradient>
    </defs>
    <g id="ui升级" stroke="none" stroke-width="1" fill="none" fill-rule="evenodd">
        <g id="哈啰助力车" transform="translate(-698.000000, -2742.000000)" fill-rule="nonzero">
            <g id="资源-42" transform="translate(698.000000, 2742.000000)">
                <polygon id="路径" fill="#3CDBE1" opacity="0.25" points="179.81 122.13 175.47 122.13 175.47 117.78 171.93 117.78 171.93 122.13 167.59 122.13 167.59 125.67 171.93 125.67 171.93 130.01 175.47 130.01 175.47 125.67 179.81 125.67"></polygon>
                <polygon id="路径" fill="#3CDBE1" points="207.56 49.03 204.08 49.03 204.08 45.55 201.24 45.55 201.24 49.03 197.76 49.03 197.76 51.86 201.24 51.86 201.24 55.34 204.08 55.34 204.08 51.86 207.56 51.86"></polygon>
                <polygon id="路径" fill="#3CDBE1" opacity="0.25" points="50.42 164.33 45.7845183 164.33 45.7845183 160.05 42.0154817 160.05 42.0154817 164.33 37.38 164.33 37.38 167.81 42.0154817 167.81 42.0154817 172.09 45.7845183 172.09 45.7845183 167.81 50.42 167.81"></polygon>
                <polygon id="路径" fill="#3CDBE1" points="73.08 34.33 68.7 34.33 68.7 29.95 65.13 29.95 65.13 34.33 60.74 34.33 60.74 37.9 65.13 37.9 65.13 42.29 68.7 42.29 68.7 37.9 73.08 37.9"></polygon>
                <polygon id="路径" fill="#3CDBE1" opacity="0.25" points="18.88 70.3 16.08 70.3 16.08 67.5 13.8 67.5 13.8 70.3 11 70.3 11 72.59 13.8 72.59 13.8 75.39 16.08 75.39 16.08 72.59 18.88 72.59"></polygon>
                <path d="M119,41.73 C130.86,34.88 142.73,33.24 151.8,38.41 C169.95,48.75 170.05,82.41 152.02,113.68 L119.3,164.35 L86.45,151.51 C68.31,141.17 68.21,107.46 86.24,76.23 C95.26,60.61 107.1,48.57 119,41.73 Z" id="路径" fill="#3ECEFF"></path>
                <path d="M93.88,64.71 C94.27,64.18 94.67,63.71 95.07,63.15 L95.91,62.15 L97,60.78 L97.86,59.78 L98.86,58.7 C99.36,58.13 99.86,57.58 100.37,57.03 L101.19,56.14 C101.77,55.53 102.34,54.94 102.92,54.36 L103.57,53.71 L104.27,53.04 L105.59,51.78 L106.41,51.04 C106.82,50.67 107.23,50.3 107.65,49.94 L108.5,49.21 L109.73,48.21 L110.6,47.51 L111.83,46.51 L112.69,45.87 L113.98,44.95 C114.25,44.76 114.52,44.56 114.8,44.38 L116.21,43.44 L116.9,42.99 C117.61,42.55 118.31,42.12 119.01,41.72 C119.71,41.32 120.34,40.97 121.01,40.62 L121.59,40.32 C122.09,40.06 122.59,39.82 123.09,39.58 L123.65,39.31 C124.31,39.01 124.97,38.71 125.65,38.44 L125.81,38.38 C126.42,38.13 127.03,37.9 127.64,37.68 L128.03,37.54 C128.67,37.31 129.3,37.11 129.93,36.92 L130.3,36.81 C130.75,36.68 131.2,36.56 131.66,36.45 C132.12,36.34 132.31,36.28 132.66,36.21 L133.68,36 L134.68,35.82 L135.97,35.64 L136.59,35.56 C137.216667,35.4933333 137.846667,35.4433333 138.48,35.41 L138.48,35.41 C139.1,35.41 139.71,35.41 140.32,35.41 L140.86,35.41 C141.32,35.41 141.78,35.41 142.23,35.5 L142.68,35.5 C143.26,35.56 143.84,35.64 144.41,35.74 L144.67,35.8 C145.17,35.89 145.67,36 146.14,36.12 L146.56,36.23 C147.11,36.38 147.65,36.55 148.19,36.74 L148.39,36.82 C148.87,36.99 149.39,37.19 149.8,37.39 L150.2,37.57 C150.73,37.82 151.25,38.08 151.76,38.38 L139.06,31 L139,31 C138.52,30.73 138,30.48 137.53,30.25 L137.13,30.07 L136.65,29.85 C136.34,29.72 136.03,29.61 135.71,29.49 L135.52,29.41 C135.09,29.26 134.65,29.12 134.21,28.99 L133.89,28.91 L133.47,28.8 C132.98,28.67 132.47,28.56 132,28.47 L131.74,28.47 L131.63,28.47 C131.1,28.37 130.55,28.3 130.01,28.24 L129.56,28.24 L128.86,28.18 L128.18,28.18 L127.65,28.18 C127.04,28.18 126.43,28.18 125.82,28.18 L125.82,28.18 C125.19,28.18 124.56,28.26 123.93,28.32 L123.31,28.4 L122.41,28.52 L122,28.44 L121,28.61 C120.63,28.69 120.25,28.76 119.88,28.85 L118.88,29.08 L118.25,29.24 C118,29.3 117.76,29.38 117.52,29.45 L117.15,29.55 C116.52,29.74 115.89,29.95 115.25,30.17 L114.86,30.31 C114.25,30.53 113.64,30.76 113.03,31.01 L112.87,31.08 L112.8,31.08 C112.17,31.35 111.53,31.63 110.88,31.93 L110.33,32.19 L108.84,33 C108.64,33.1 108.45,33.19 108.26,33.3 C107.59,33.65 106.93,34.01 106.26,34.39 C105.59,34.77 104.86,35.23 104.15,35.67 C103.92,35.81 103.69,35.97 103.46,36.12 L102.05,37 L101.23,37.58 L99.94,38.49 L99.08,39.14 L97.84,40.14 C97.55,40.36 97.27,40.6 96.98,40.83 C96.69,41.06 96.16,41.5 95.75,41.83 L94.9,42.55 L93.65,43.66 C93.38,43.9 93.11,44.14 92.85,44.39 C92.4,44.8 91.96,45.23 91.52,45.65 L90.82,46.32 L90.67,46.46 L90.17,46.98 C89.59,47.56 89.01,48.15 88.44,48.75 L87.62,49.64 C87.11,50.19 86.62,50.75 86.11,51.32 L85.65,51.82 C85.49,52.01 85.33,52.21 85.16,52.4 L84.3,53.4 C83.94,53.8266667 83.58,54.2666667 83.22,54.72 C82.94,55.06 82.66,55.41 82.39,55.77 L81.96,56.3 L81.19,57.3 L80.64,58.03 C80.05,58.81 79.48,59.61 78.91,60.42 C78.09,61.58 77.3,62.77 76.52,63.98 L76.22,64.43 L75.89,64.97 C75.3,65.91 74.71,66.87 74.14,67.84 L73.81,68.38 C73.72,68.53 73.64,68.68 73.55,68.82 C72.93,69.9 72.33,70.99 71.75,72.07 L71.61,72.32 L71.29,72.95 C70.81,73.86 70.35,74.78 69.9,75.69 L69.62,76.26 C69.53,76.43 69.46,76.61 69.38,76.79 C68.91,77.79 68.45,78.79 68.02,79.79 C67.94,79.96 67.86,80.13 67.79,80.3 L67.7,80.51 C67.62,80.68 67.55,80.85 67.48,81.02 C67.17,81.74 66.88,82.47 66.59,83.19 C66.49,83.42 66.4,83.66 66.31,83.9 L66.1,84.42 C65.85,85.07 65.62,85.71 65.39,86.35 C65.3589855,86.4182654 65.3322668,86.4884021 65.31,86.56 C65.04,87.29 64.79,88.03 64.54,88.77 L64.42,89.15 C64.32,89.45 64.23,89.75 64.13,90.05 C63.94,90.65 63.75,91.25 63.58,91.86 C63.48,92.17 63.39,92.49 63.3,92.81 C63.21,93.13 63.16,93.26 63.1,93.48 C63.04,93.7 62.94,94.11 62.85,94.48 C62.76,94.85 62.63,95.31 62.53,95.72 C62.43,96.13 62.28,96.72 62.16,97.28 C62.04,97.84 61.97,98.08 61.88,98.49 L61.79,98.88 L61.64,99.66 C61.51,100.32 61.38,100.98 61.26,101.66 C61.19,102.06 61.13,102.45 61.06,102.84 C60.96,103.48 60.87,104.11 60.78,104.74 C60.78,104.97 60.7,105.2 60.68,105.42 C60.66,105.64 60.68,105.72 60.68,105.88 C60.59,106.59 60.52,107.3 60.45,108.01 L60.36,108.92 C60.28,109.92 60.22,110.92 60.18,111.92 L60.18,112.21 C60.18,113.08 60.18,113.94 60.18,114.8 C60.18,115.11 60.18,115.42 60.18,115.73 C60.18,116.37 60.18,117 60.25,117.63 C60.25,117.97 60.3,118.3 60.32,118.63 C60.37,119.23 60.42,119.82 60.49,120.41 C60.49,120.73 60.56,121.05 60.6,121.36 C60.68,122.02 60.78,122.66 60.89,123.3 C60.89,123.52 60.96,123.75 61,123.97 C61.16,124.823333 61.34,125.653333 61.54,126.46 C61.54,126.64 61.64,126.82 61.69,127 C61.85,127.62 62.03,128.25 62.22,128.85 C62.3,129.12 62.4,129.39 62.49,129.65 C62.66,130.16 62.85,130.65 63.04,131.15 L63.37,131.96 C63.57,132.44 63.79,132.96 64.02,133.38 C64.13,133.62 64.24,133.86 64.36,134.09 C64.66,134.66 64.96,135.2 65.28,135.73 C65.35,135.85 65.41,135.97 65.48,136.08 C65.88,136.72 66.3,137.33 66.74,137.92 C66.86,138.09 67,138.24 67.13,138.41 C67.45,138.82 67.79,139.23 68.13,139.62 C68.3,139.82 68.48,140.01 68.66,140.19 C68.99,140.54 69.33,140.87 69.66,141.19 L70.25,141.72 C70.62,142.04 71.01,142.35 71.41,142.65 L71.96,143.07 C72.55,143.48 73.16,143.88 73.79,144.24 L86.48,151.62 C85.85,151.26 85.24,150.86 84.65,150.44 C84.46,150.31 84.28,150.16 84.1,150.02 C83.7,149.72 83.31,149.42 82.94,149.09 L82.35,148.56 C82,148.24 81.66,147.9 81.35,147.56 L80.82,146.99 C80.47,146.6 80.13,146.19 79.82,145.77 L79.43,145.29 C78.99,144.7 78.57,144.08 78.18,143.45 C78.1,143.33 78.04,143.21 77.97,143.1 C77.65,142.56 77.35,142.02 77.06,141.46 C76.94,141.23 76.82,140.99 76.71,140.75 C76.48,140.28 76.27,139.81 76.06,139.33 L75.73,138.52 C75.54,138.03 75.35,137.52 75.18,137.02 L74.91,136.22 C74.72,135.61 74.54,134.99 74.38,134.36 C74.38,134.18 74.27,134.01 74.23,133.83 C74.03,133.01 73.85,132.18 73.69,131.33 C73.69,131.11 73.62,130.88 73.58,130.66 C73.47,130.02 73.37,129.38 73.29,128.72 C73.29,128.41 73.21,128.09 73.18,127.78 C73.11,127.19 73.06,126.59 73.01,125.99 C73.01,125.66 72.96,125.32 72.94,124.99 C72.94,124.37 72.89,123.73 72.87,123.1 C72.87,122.79 72.87,122.48 72.87,122.16 C72.87,121.306667 72.87,120.446667 72.87,119.58 L72.87,119.28 C72.87,118.28 72.97,117.28 73.05,116.28 L73.14,115.37 C73.21,114.66 73.28,113.96 73.37,113.24 C73.37,112.86 73.47,112.48 73.52,112.1 C73.61,111.47 73.7,110.85 73.8,110.21 C73.87,109.82 73.93,109.42 74,109.03 C74.12,108.37 74.25,107.72 74.38,107.03 L74.62,105.85 C74.71,105.45 74.81,105.04 74.9,104.64 C74.99,104.24 75.14,103.64 75.27,103.09 C75.4,102.54 75.48,102.26 75.6,101.84 C75.72,101.42 75.88,100.77 76.04,100.23 C76.13,99.91 76.22,99.59 76.32,99.23 C76.49,98.63 76.68,98.02 76.87,97.42 L77.16,96.53 C77.44,95.67 77.74,94.8 78.05,93.93 C78.0722668,93.8584021 78.0989855,93.7882654 78.13,93.72 C78.42,92.91 78.73,92.09 79.05,91.27 C79.14,91.04 79.24,90.8 79.33,90.56 C79.62,89.84 79.92,89.12 80.22,88.39 C80.3,88.22 80.37,88.05 80.44,87.88 C80.51,87.71 80.65,87.4 80.76,87.17 C81.19,86.17 81.65,85.17 82.12,84.17 C82.29,83.8 82.47,83.44 82.64,83.08 C83.09,82.16 83.56,81.25 84.03,80.34 L84.49,79.45 C85.07,78.37 85.67,77.29 86.29,76.21 C86.48,75.88 86.68,75.55 86.88,75.21 C87.45,74.21 88.04,73.28 88.63,72.34 L89.26,71.34 C90.04,70.13 90.83,68.94 91.64,67.78 L91.64,67.78 C92.21,66.97 92.78,66.18 93.37,65.4 C93.51,65.19 93.69,65 93.88,64.71 Z" id="路径" fill="url(#linearGradient-1)"></path>
                <path d="M117.36,64 C123.9,60.23 129.22,63.26 129.24,70.77 L129.31,96.09 C129.31,103.6 124.05,112.75 117.51,116.52 C110.97,120.29 105.66,117.27 105.64,109.76 L105.569943,84.43 C105.55,76.88 110.83,67.73 117.36,64 Z" id="路径" fill="#5FF7D6"></path>
                <path d="M139.76,90.16 C139.76,103.41 131.02,119.43 119.76,127.21 L119.76,141.08 L115.29,143.66 L115.29,129.8 C104.07,135 95.23,129.14 95.2,115.89 L99.66,113.31 C99.66,124.6 107.72,129.17 117.53,123.5 C127.34,117.83 135.32,104 135.29,92.74 L139.76,90.16 Z" id="路径" fill="#5FF7D6"></path>
            </g>
        </g>
    </g>
</svg>