<?xml version="1.0" encoding="UTF-8"?>
<svg width="220px" height="200px" viewBox="0 0 220 200" version="1.1" xmlns="http://www.w3.org/2000/svg" xmlns:xlink="http://www.w3.org/1999/xlink">
    <!-- Generator: Sketch 55.2 (78181) - https://sketchapp.com -->
    <title>pic_haluoyewu_haluozhuliche_chanpinjieshao_zhinengdianchi</title>
    <desc>Created with Sketch.</desc>
    <defs>
        <linearGradient x1="0%" y1="49.9822758%" x2="100%" y2="49.9822758%" id="linearGradient-1">
            <stop stop-color="#00C1F8" offset="0%"></stop>
            <stop stop-color="#0274EE" offset="100%"></stop>
        </linearGradient>
        <linearGradient x1="55.034613%" y1="34.185129%" x2="40.0881057%" y2="81.0150298%" id="linearGradient-2">
            <stop stop-color="#00C1F8" offset="0%"></stop>
            <stop stop-color="#0274EE" offset="100%"></stop>
        </linearGradient>
        <linearGradient x1="0%" y1="50%" x2="100%" y2="50%" id="linearGradient-3">
            <stop stop-color="#00C1F8" offset="0%"></stop>
            <stop stop-color="#0274EE" offset="100%"></stop>
        </linearGradient>
        <linearGradient x1="55.1463645%" y1="29.1918553%" x2="41.0764873%" y2="86.180179%" id="linearGradient-4">
            <stop stop-color="#00C1F8" offset="0%"></stop>
            <stop stop-color="#0274EE" offset="100%"></stop>
        </linearGradient>
    </defs>
    <g id="ui升级" stroke="none" stroke-width="1" fill="none" fill-rule="evenodd">
        <g id="哈啰助力车" transform="translate(-1003.000000, -3162.000000)" fill-rule="nonzero">
            <g id="资源-48" transform="translate(1003.000000, 3162.000000)">
                <g id="编组" transform="translate(110.000000, 65.000000)">
                    <polygon id="路径" fill="url(#linearGradient-1)" points="31.83 72.39 11.88 60.79 0.05 44.18 20.01 55.78"></polygon>
                    <polygon id="路径" fill="#3ECEFF" points="31.7 25.59 55.22 12.01 67.04 28.63 55.35 58.81 31.83 72.39 20.01 55.78"></polygon>
                    <polygon id="路径" fill="#02B3F6" points="31.7 25.59 11.74 13.99 35.26 0.41 55.22 12.01"></polygon>
                    <polygon id="路径" fill="#3ECEFF" points="20.01 55.78 0.05 44.18 11.74 13.99 31.7 25.59"></polygon>
                </g>
                <g id="编组" transform="translate(84.000000, 63.000000)">
                    <polygon id="路径" fill="#3CDBE1" points="31.8 72.62 11.84 61.02 0.02 44.41 19.98 56.01"></polygon>
                    <polygon id="路径" fill="#5CF0D0" points="31.67 25.82 55.18 12.25 67.01 28.86 55.32 59.05 31.8 72.62 19.98 56.01"></polygon>
                    <polygon id="路径" fill="#3CDBE1" points="31.67 25.82 11.71 14.22 35.23 0.65 55.18 12.25"></polygon>
                    <polygon id="路径" fill="#38CCD1" points="19.98 56.01 0.02 44.41 11.71 14.22 31.67 25.82"></polygon>
                </g>
                <g id="编组" transform="translate(37.000000, 100.000000)">
                    <polygon id="路径" fill="url(#linearGradient-2)" points="31.78 72.43 11.82 60.83 0 44.21 19.96 55.81"></polygon>
                    <polygon id="路径" fill="#3ECEFF" points="31.64 25.63 55.16 12.05 66.98 28.66 55.29 58.85 31.78 72.43 19.96 55.81"></polygon>
                    <polygon id="路径" fill="#02B3F6" points="31.64 25.63 11.69 14.03 35.2 0.45 55.16 12.05"></polygon>
                    <polygon id="路径" fill="url(#linearGradient-3)" points="19.96 55.81 0 44.21 11.69 14.03 31.64 25.63"></polygon>
                </g>
                <g id="编组" transform="translate(71.000000, 10.000000)">
                    <polygon id="路径" fill="url(#linearGradient-4)" points="32.6 71.97 12.64 60.38 0.83 43.76 20.78 55.36"></polygon>
                    <polygon id="路径" fill="#3ECEFF" points="32.47 25.18 55.98 11.6 67.81 28.21 56.12 58.4 32.6 71.97 20.78 55.36"></polygon>
                    <polygon id="路径" fill="#02B3F6" points="32.47 25.18 12.51 13.58 36.03 0 55.98 11.6"></polygon>
                    <polygon id="路径" fill="url(#linearGradient-3)" points="20.78 55.36 0.83 43.76 12.51 13.58 32.47 25.18"></polygon>
                </g>
            </g>
        </g>
    </g>
</svg>