<?xml version="1.0" encoding="UTF-8"?>
<svg width="220px" height="200px" viewBox="0 0 220 200" version="1.1" xmlns="http://www.w3.org/2000/svg" xmlns:xlink="http://www.w3.org/1999/xlink">
    <!-- Generator: Sketch 55.2 (78181) - https://sketchapp.com -->
    <title>pic_haluoyewu_haluozhuliche_chanpinjieshao_zhinengdianchi</title>
    <desc>Created with Sketch.</desc>
    <g id="ui升级" stroke="none" stroke-width="1" fill="none" fill-rule="evenodd">
        <g id="哈啰助力车" transform="translate(-1003.000000, -2742.000000)" fill-rule="nonzero">
            <g id="资源-41" transform="translate(1003.000000, 2742.000000)">
                <polygon id="路径" fill="#484B63" points="109.42 110.81 129.15 157.34 121.9 160.31 88.54 117.02"></polygon>
                <polygon id="路径" fill="#484B63" points="154.62 84.43 134.55 155.25 126.19 158.48 135.1 91.66"></polygon>
                <path d="M204.16,31.08 C204.136319,30.767569 204.092899,30.4569488 204.03,30.15 C204.018171,30.0624727 204.001478,29.9756718 203.98,29.89 C203.92,29.59 203.84,29.29 203.75,28.99 L203.69,28.83 C203.6,28.57 203.51,28.31 203.4,28.06 C203.29,27.81 203.31,27.84 203.26,27.73 C203.15,27.47 203.03,27.22 202.89,26.96 C202.874065,26.9180933 202.853965,26.8778918 202.83,26.84 L202.68,26.57 L202.38,26.07 L202.2,25.79 C202.07,25.59 201.93,25.4 201.79,25.2 L201.67,25 C201.47,24.74 201.26,24.49 201.05,24.24 L201.05,24.24 C200.83,23.99 200.61,23.76 200.38,23.53 L200.38,23.53 L200.33,23.53 C200.16,23.36 199.99,23.21 199.81,23.06 L199.69,22.95 L199.16,22.54 L199,22.4 L198.42,22 L198.35,22 C198.12,21.87 197.89,21.74 197.66,21.63 C195.99,20.83 194.53,20.86 193.53,21.55 L164.53,41.67 C165.53,40.96 166.99,40.94 168.66,41.74 C168.9,41.85 169.13,41.98 169.36,42.11 L169.36,42.11 C169.59,42.25 169.81,42.4 170.03,42.56 L170.03,42.56 C170.488836,42.8954177 170.923263,43.2630097 171.33,43.66 C171.81791,44.1287595 172.266112,44.6371679 172.67,45.18 L172.74,45.27 C172.91,45.5 173.07,45.74 173.23,45.98 L173.33,46.13 C173.503333,46.4033333 173.663333,46.6733333 173.81,46.94 L173.81,46.94 C173.99,47.27 174.15,47.61 174.29,47.94 L174.29,48.04 C174.564949,48.6853564 174.779207,49.3549134 174.93,50.04 C174.935688,50.1032056 174.935688,50.1667944 174.93,50.23 C174.992289,50.5437826 175.0357,50.8610189 175.06,51.18 C175.2,53 174.66,54.33 173.67,55 L202.67,34.9 C203.831158,33.9974105 204.40336,32.530425 204.16,31.08 L204.16,31.08 Z" id="路径" fill="#484B63"></path>
                <path d="M168.7,41.71 C172.264722,43.638225 174.686494,47.16114 175.21,51.18 C175.49,54.83 173.02,56.51 169.71,54.92 C166.144442,52.985893 163.720499,49.4615107 163.19,45.44 C162.91,41.79 165.39,40.13 168.7,41.71 Z" id="路径" fill="#3E3A39"></path>
                <path d="M168,39.94 C172.515626,42.3908118 175.59144,46.8485128 176.28,51.94 C176.63,56.58 173.49,58.72 169.28,56.7 C164.761031,54.2529104 161.683894,49.7932916 161,44.7 C160.62,40.05 163.76,37.92 168,39.94 Z" id="路径" fill="#3ECEFF"></path>
                <path d="M174.29,57 L162.64,40 L157.42,43.56 L157.42,43.56 C156.08,44.39 155.33,46.11 155.51,48.5 C156.19856,53.5914872 159.274374,58.0491882 163.79,60.5 C165.94,61.5 167.79,61.5 169.08,60.56 L174.29,57 Z" id="路径" fill="#292929"></path>
                <polygon id="路径" fill="#0098E1" points="160.98 41.04 162.64 39.92 174.29 56.96 172.62 58.1"></polygon>
                <path d="M166.16,41.17 C170.677853,43.6183324 173.754548,48.0773106 174.44,53.17 C174.79,57.81 171.66,59.94 167.44,57.93 C162.924374,55.4791882 159.84856,51.0214872 159.16,45.93 C158.81,41.28 161.94,39.15 166.16,41.17 Z" id="路径" fill="#484B63"></path>
                <polygon id="路径" fill="#292929" points="152.57 36.11 152.63 60.72 51.22 114.53 51.15 93.92"></polygon>
                <polygon id="路径" fill="#3ECEFF" points="147.78 77.26 147.81 90.94 123.9 104.75 123.86 91.07"></polygon>
                <polygon id="路径" fill="#43465C" points="178.22 57.99 147.78 80.63 147.81 90.94 178.24 67.83"></polygon>
                <polygon id="路径" fill="#43465C" points="76.81 112.42 123.86 91.07 123.9 104.75 76.83 125.63"></polygon>
                <polygon id="路径" fill="#43465C" points="51.15 93.92 76.81 112.42 76.83 125.63 51.22 114.53"></polygon>
                <polygon id="路径" fill="#63687D" points="152.57 36.11 178.22 57.99 147.78 80.63 123.86 94.43 76.81 115.79 51.15 93.92"></polygon>
                <polygon id="路径" fill="#858CA8" points="123.86 47.31 147.78 80.63 123.86 94.43 86.97 68.08"></polygon>
                <polygon id="路径" fill="#43465C" points="86.97 68.08 81.24 76.77 123.86 94.43"></polygon>
                <polygon id="路径" fill="#484B63" points="48.9 104.94 54.46 102.24 63.28 120.4 57.7 123.11"></polygon>
                <path d="M21.89,124.24 C25.0561816,126.622706 26.8892264,130.378031 26.82,134.34 C26.57,137.91 23.93,139.18 20.96,137.17 C17.7848093,134.787289 15.9411482,131.029343 16,127.06 C16.27,123.49 18.9,122.24 21.89,124.24 Z" id="路径" fill="#3E3A39"></path>
                <path d="M59.62,103 C63.6455468,106.029009 65.9767215,110.802898 65.89,115.84 C65.57,120.38 62.23,121.99 58.44,119.44 C54.4197088,116.405661 52.0870459,111.636331 52.16,106.6 C52.49,102.09 55.83,100.48 59.62,103 Z" id="路径" fill="#484B63"></path>
                <path d="M53.8,105.85 C57.8255468,108.879009 60.1567215,113.652898 60.07,118.69 C59.75,123.23 56.41,124.84 52.62,122.29 C48.5997088,119.255661 46.2670459,114.486331 46.34,109.45 C46.67,104.91 50,103.3 53.8,105.85 Z" id="路径" fill="#3ECEFF"></path>
                <path d="M54.7,119.73 C54.7,119.64 54.7,119.56 54.7,119.47 C54.7,119.17 54.7,118.87 54.6,118.57 L54.6,118.4 C54.55,118.14 54.5,117.88 54.43,117.62 C54.4092109,117.505364 54.3825086,117.391879 54.35,117.28 C54.27,117.02 54.19,116.75 54.1,116.49 C54.0955757,116.443438 54.0955757,116.396562 54.1,116.35 L53.98,116.07 C53.92,115.9 53.85,115.72 53.77,115.55 L53.64,115.25 L53.33,114.63 L53.23,114.44 C53.08,114.16 52.91,113.88 52.74,113.62 L52.74,113.62 C52.57,113.35 52.39,113.1 52.2,112.85 L52.2,112.85 L52.2,112.8 L51.77,112.27 L51.66,112.15 C51.52,111.99 51.37,111.83 51.21,111.68 C51.1819011,111.641814 51.1481862,111.608099 51.11,111.58 C50.94,111.41 50.77,111.26 50.6,111.12 L50.38,111 C50.18,110.84 49.97,110.69 49.77,110.55 C48.26,109.55 46.85,109.35 45.77,109.88 L17.9,123.58 C18.97,123.04 20.38,123.23 21.9,124.24 C22.11,124.38 22.31,124.54 22.52,124.71 L22.52,124.71 C22.72,124.87 22.91,125.05 23.1,125.23 L23.1,125.23 C23.4942706,125.615077 23.8586566,126.029608 24.19,126.47 C24.59361,126.997221 24.9547436,127.55564 25.27,128.14 L25.33,128.24 C25.46,128.48 25.58,128.74 25.7,128.99 L25.78,129.16 C25.9,129.44 26.02,129.72 26.12,130 L26.12,130 C26.24,130.34 26.35,130.69 26.44,131 L26.44,131.1 C26.6150497,131.75429 26.7255776,132.424156 26.77,133.1 C26.77,133.16 26.77,133.22 26.77,133.28 C26.77,133.6 26.77,133.92 26.77,134.28 C26.8183783,135.702393 26.0958996,137.040317 24.88,137.78 L52.76,124.08 C53.9736554,123.33931 54.6925995,122.00085 54.64,120.58 C54.6775181,120.298176 54.6975564,120.0143 54.7,119.73 L54.7,119.73 Z" id="路径" fill="#484B63"></path>
            </g>
        </g>
    </g>
</svg>